<mxfile host="app.diagrams.net" modified="2023-08-15T21:10:24.916Z" agent="Mozilla/5.0 (Windows NT 10.0; Win64; x64) AppleWebKit/537.36 (KHTML, like Gecko) Chrome/115.0.0.0 Safari/537.36 Edg/115.0.1901.203" etag="8sLH-soHzwf-rtX1jCfJ" version="21.6.6" type="github">
  <diagram name="PÃ¡gina-1" id="wR295S50Q8sB6ridwicA">
    <mxGraphModel dx="825" dy="452" grid="1" gridSize="10" guides="1" tooltips="1" connect="1" arrows="1" fold="1" page="1" pageScale="1" pageWidth="1169" pageHeight="827" math="0" shadow="0">
      <root>
        <mxCell id="0" />
        <mxCell id="1" parent="0" />
        <mxCell id="2WrpGyhHkEp9dLVq_0Gb-3" value="AWS Cloud" style="points=[[0,0],[0.25,0],[0.5,0],[0.75,0],[1,0],[1,0.25],[1,0.5],[1,0.75],[1,1],[0.75,1],[0.5,1],[0.25,1],[0,1],[0,0.75],[0,0.5],[0,0.25]];outlineConnect=0;gradientColor=none;html=1;whiteSpace=wrap;fontSize=12;fontStyle=0;container=1;pointerEvents=0;collapsible=0;recursiveResize=0;shape=mxgraph.aws4.group;grIcon=mxgraph.aws4.group_aws_cloud_alt;strokeColor=#232F3E;fillColor=none;verticalAlign=top;align=left;spacingLeft=30;fontColor=#232F3E;dashed=0;" vertex="1" parent="1">
          <mxGeometry x="190" y="130" width="730" height="370" as="geometry" />
        </mxCell>
        <mxCell id="2WrpGyhHkEp9dLVq_0Gb-4" value="" style="sketch=0;outlineConnect=0;fontColor=#232F3E;gradientColor=none;fillColor=#BF0816;strokeColor=none;dashed=0;verticalLabelPosition=bottom;verticalAlign=top;align=center;html=1;fontSize=12;fontStyle=0;aspect=fixed;pointerEvents=1;shape=mxgraph.aws4.data_encryption_key;" vertex="1" parent="2WrpGyhHkEp9dLVq_0Gb-3">
          <mxGeometry x="50" y="70" width="47.69" height="60" as="geometry" />
        </mxCell>
        <mxCell id="2WrpGyhHkEp9dLVq_0Gb-26" style="edgeStyle=orthogonalEdgeStyle;rounded=0;orthogonalLoop=1;jettySize=auto;html=1;exitX=1;exitY=0.5;exitDx=0;exitDy=0;exitPerimeter=0;entryX=0;entryY=0.5;entryDx=0;entryDy=0;entryPerimeter=0;strokeWidth=3;strokeColor=#B3B3B3;" edge="1" parent="2WrpGyhHkEp9dLVq_0Gb-3" source="2WrpGyhHkEp9dLVq_0Gb-11" target="2WrpGyhHkEp9dLVq_0Gb-13">
          <mxGeometry relative="1" as="geometry" />
        </mxCell>
        <mxCell id="2WrpGyhHkEp9dLVq_0Gb-11" value="" style="outlineConnect=0;dashed=0;verticalLabelPosition=bottom;verticalAlign=top;align=center;html=1;shape=mxgraph.aws3.s3;fillColor=#E05243;gradientColor=none;" vertex="1" parent="2WrpGyhHkEp9dLVq_0Gb-3">
          <mxGeometry x="180" y="137.5" width="76.5" height="93" as="geometry" />
        </mxCell>
        <mxCell id="2WrpGyhHkEp9dLVq_0Gb-13" value="" style="sketch=0;points=[[0,0,0],[0.25,0,0],[0.5,0,0],[0.75,0,0],[1,0,0],[0,1,0],[0.25,1,0],[0.5,1,0],[0.75,1,0],[1,1,0],[0,0.25,0],[0,0.5,0],[0,0.75,0],[1,0.25,0],[1,0.5,0],[1,0.75,0]];outlineConnect=0;fontColor=#232F3E;gradientColor=#4D72F3;gradientDirection=north;fillColor=#3334B9;strokeColor=#ffffff;dashed=0;verticalLabelPosition=bottom;verticalAlign=top;align=center;html=1;fontSize=12;fontStyle=0;aspect=fixed;shape=mxgraph.aws4.resourceIcon;resIcon=mxgraph.aws4.dynamodb;" vertex="1" parent="2WrpGyhHkEp9dLVq_0Gb-3">
          <mxGeometry x="600" y="144.5" width="78" height="78" as="geometry" />
        </mxCell>
        <mxCell id="2WrpGyhHkEp9dLVq_0Gb-14" value="" style="shape=image;verticalLabelPosition=bottom;labelBackgroundColor=default;verticalAlign=top;aspect=fixed;imageAspect=0;image=https://cdn-icons-png.flaticon.com/512/5815/5815902.png;" vertex="1" parent="2WrpGyhHkEp9dLVq_0Gb-3">
          <mxGeometry x="50" y="250" width="62" height="62" as="geometry" />
        </mxCell>
        <mxCell id="2WrpGyhHkEp9dLVq_0Gb-19" value="" style="shape=image;verticalLabelPosition=bottom;labelBackgroundColor=default;verticalAlign=top;aspect=fixed;imageAspect=0;image=https://cdn-icons-png.flaticon.com/128/641/641693.png;" vertex="1" parent="2WrpGyhHkEp9dLVq_0Gb-3">
          <mxGeometry x="520" y="154.5" width="58" height="58" as="geometry" />
        </mxCell>
        <mxCell id="2WrpGyhHkEp9dLVq_0Gb-28" value="" style="edgeStyle=orthogonalEdgeStyle;html=1;endArrow=block;elbow=vertical;startArrow=none;endFill=1;strokeColor=#B3B3B3;rounded=0;strokeWidth=3;" edge="1" parent="2WrpGyhHkEp9dLVq_0Gb-3" source="2WrpGyhHkEp9dLVq_0Gb-11" target="2WrpGyhHkEp9dLVq_0Gb-4">
          <mxGeometry width="100" relative="1" as="geometry">
            <mxPoint x="-110" y="54" as="sourcePoint" />
            <mxPoint x="80" y="184" as="targetPoint" />
            <Array as="points">
              <mxPoint x="140" y="184" />
              <mxPoint x="140" y="100" />
            </Array>
          </mxGeometry>
        </mxCell>
        <mxCell id="2WrpGyhHkEp9dLVq_0Gb-30" value="" style="edgeStyle=orthogonalEdgeStyle;html=1;endArrow=block;elbow=vertical;startArrow=none;endFill=1;strokeColor=#B3B3B3;rounded=0;entryX=0.5;entryY=0;entryDx=0;entryDy=0;strokeWidth=3;" edge="1" parent="2WrpGyhHkEp9dLVq_0Gb-3" source="2WrpGyhHkEp9dLVq_0Gb-11" target="2WrpGyhHkEp9dLVq_0Gb-14">
          <mxGeometry width="100" relative="1" as="geometry">
            <mxPoint x="-110" y="54" as="sourcePoint" />
            <mxPoint x="80" y="184" as="targetPoint" />
            <Array as="points">
              <mxPoint x="140" y="184" />
              <mxPoint x="140" y="250" />
            </Array>
          </mxGeometry>
        </mxCell>
        <mxCell id="2WrpGyhHkEp9dLVq_0Gb-21" style="edgeStyle=orthogonalEdgeStyle;rounded=0;orthogonalLoop=1;jettySize=auto;html=1;strokeWidth=3;strokeColor=#B3B3B3;" edge="1" parent="1" source="2WrpGyhHkEp9dLVq_0Gb-15" target="2WrpGyhHkEp9dLVq_0Gb-11">
          <mxGeometry relative="1" as="geometry">
            <Array as="points">
              <mxPoint x="575" y="430" />
              <mxPoint x="408" y="430" />
            </Array>
          </mxGeometry>
        </mxCell>
        <mxCell id="2WrpGyhHkEp9dLVq_0Gb-23" style="edgeStyle=orthogonalEdgeStyle;rounded=0;orthogonalLoop=1;jettySize=auto;html=1;strokeWidth=3;strokeColor=#B3B3B3;" edge="1" parent="1" source="2WrpGyhHkEp9dLVq_0Gb-15" target="2WrpGyhHkEp9dLVq_0Gb-13">
          <mxGeometry relative="1" as="geometry">
            <Array as="points">
              <mxPoint x="575" y="430" />
              <mxPoint x="829" y="430" />
            </Array>
          </mxGeometry>
        </mxCell>
        <mxCell id="2WrpGyhHkEp9dLVq_0Gb-15" value="" style="shape=image;verticalLabelPosition=bottom;labelBackgroundColor=default;verticalAlign=top;aspect=fixed;imageAspect=0;image=https://www.datocms-assets.com/2885/1506457071-blog-terraform-list.svg;" vertex="1" parent="1">
          <mxGeometry x="531" y="524" width="110" height="110" as="geometry" />
        </mxCell>
        <mxCell id="2WrpGyhHkEp9dLVq_0Gb-17" style="edgeStyle=orthogonalEdgeStyle;rounded=0;orthogonalLoop=1;jettySize=auto;html=1;entryX=-0.018;entryY=0.436;entryDx=0;entryDy=0;entryPerimeter=0;strokeWidth=3;strokeColor=#B3B3B3;" edge="1" parent="1" source="2WrpGyhHkEp9dLVq_0Gb-16" target="2WrpGyhHkEp9dLVq_0Gb-15">
          <mxGeometry relative="1" as="geometry" />
        </mxCell>
        <mxCell id="2WrpGyhHkEp9dLVq_0Gb-16" value="" style="outlineConnect=0;dashed=0;verticalLabelPosition=bottom;verticalAlign=top;align=center;html=1;shape=mxgraph.aws3.user;fillColor=#D2D3D3;gradientColor=none;" vertex="1" parent="1">
          <mxGeometry x="280" y="540" width="45" height="63" as="geometry" />
        </mxCell>
      </root>
    </mxGraphModel>
  </diagram>
</mxfile>
